<mxfile host="app.diagrams.net" modified="2021-04-06T15:12:42.004Z" agent="5.0 (X11; Linux x86_64) AppleWebKit/537.36 (KHTML, like Gecko) Chrome/88.0.4324.150 Safari/537.36" etag="Q6WjTkUMBy5FOSKbnLc6" version="14.4.2" type="github">
  <diagram id="cn4aKhFlLtVEDiT3Zxqw" name="Page-1">
    <mxGraphModel dx="1422" dy="765" grid="1" gridSize="10" guides="1" tooltips="1" connect="1" arrows="1" fold="1" page="1" pageScale="1" pageWidth="827" pageHeight="1169" math="0" shadow="0">
      <root>
        <mxCell id="0" />
        <mxCell id="1" parent="0" />
        <mxCell id="v2xlkt1o2UhCh4SSOTkN-1" value="" style="rounded=0;whiteSpace=wrap;html=1;fontSize=16;" vertex="1" parent="1">
          <mxGeometry x="29" y="530" width="770" height="350" as="geometry" />
        </mxCell>
        <mxCell id="v2xlkt1o2UhCh4SSOTkN-2" value="LMAS WORKFLOW" style="text;html=1;strokeColor=none;fillColor=none;align=center;verticalAlign=middle;whiteSpace=wrap;rounded=0;fontSize=26;fontStyle=1" vertex="1" parent="1">
          <mxGeometry x="274" y="20" width="280" height="20" as="geometry" />
        </mxCell>
        <mxCell id="v2xlkt1o2UhCh4SSOTkN-3" value="" style="rounded=0;whiteSpace=wrap;html=1;" vertex="1" parent="1">
          <mxGeometry x="29" y="60" width="150" height="380" as="geometry" />
        </mxCell>
        <mxCell id="v2xlkt1o2UhCh4SSOTkN-4" value="&lt;b&gt;&lt;font style=&quot;font-size: 26px&quot;&gt;Input&lt;/font&gt;&lt;/b&gt;" style="text;html=1;strokeColor=none;fillColor=none;align=center;verticalAlign=middle;whiteSpace=wrap;rounded=0;" vertex="1" parent="1">
          <mxGeometry x="79" y="80" width="40" height="20" as="geometry" />
        </mxCell>
        <mxCell id="v2xlkt1o2UhCh4SSOTkN-5" value="&lt;b style=&quot;font-size: 16px&quot;&gt;--fastq&lt;/b&gt;" style="rounded=1;whiteSpace=wrap;html=1;verticalAlign=middle;" vertex="1" parent="1">
          <mxGeometry x="39" y="140" width="130" height="70" as="geometry" />
        </mxCell>
        <mxCell id="v2xlkt1o2UhCh4SSOTkN-6" value="&lt;b style=&quot;font-size: 15px&quot;&gt;--reference&lt;/b&gt;&lt;b&gt;&lt;br&gt;&lt;/b&gt;" style="rounded=1;whiteSpace=wrap;html=1;" vertex="1" parent="1">
          <mxGeometry x="39" y="240" width="130" height="70" as="geometry" />
        </mxCell>
        <mxCell id="v2xlkt1o2UhCh4SSOTkN-7" value="&lt;b style=&quot;font-size: 16px&quot;&gt;--md&lt;/b&gt;&lt;i&gt;&lt;br&gt;&lt;/i&gt;&lt;b&gt;Optional&lt;br&gt;&lt;/b&gt;" style="rounded=1;whiteSpace=wrap;html=1;" vertex="1" parent="1">
          <mxGeometry x="39" y="330" width="130" height="70" as="geometry" />
        </mxCell>
        <mxCell id="v2xlkt1o2UhCh4SSOTkN-8" value="" style="rounded=0;whiteSpace=wrap;html=1;" vertex="1" parent="1">
          <mxGeometry x="209" y="60" width="190" height="380" as="geometry" />
        </mxCell>
        <mxCell id="v2xlkt1o2UhCh4SSOTkN-9" value="&lt;b&gt;&lt;font style=&quot;font-size: 26px&quot;&gt;Assembly&lt;/font&gt;&lt;/b&gt;" style="text;html=1;strokeColor=none;fillColor=none;align=center;verticalAlign=middle;whiteSpace=wrap;rounded=0;" vertex="1" parent="1">
          <mxGeometry x="231" y="80" width="150" height="20" as="geometry" />
        </mxCell>
        <mxCell id="v2xlkt1o2UhCh4SSOTkN-10" value="&lt;font style=&quot;font-size: 16px&quot;&gt;&lt;b&gt;Assembler 1&lt;/b&gt;&lt;/font&gt;" style="rounded=1;whiteSpace=wrap;html=1;" vertex="1" parent="1">
          <mxGeometry x="229" y="140" width="150" height="40" as="geometry" />
        </mxCell>
        <mxCell id="v2xlkt1o2UhCh4SSOTkN-11" value="&lt;font style=&quot;font-size: 16px&quot;&gt;&lt;b&gt;Assembler 2&lt;/b&gt;&lt;/font&gt;" style="rounded=1;whiteSpace=wrap;html=1;" vertex="1" parent="1">
          <mxGeometry x="230" y="210" width="150" height="40" as="geometry" />
        </mxCell>
        <mxCell id="v2xlkt1o2UhCh4SSOTkN-13" value="&lt;font style=&quot;font-size: 16px&quot;&gt;&lt;b&gt;Assembler &lt;i&gt;n&lt;/i&gt;&lt;/b&gt;&lt;/font&gt;" style="rounded=1;whiteSpace=wrap;html=1;" vertex="1" parent="1">
          <mxGeometry x="231" y="360" width="150" height="40" as="geometry" />
        </mxCell>
        <mxCell id="v2xlkt1o2UhCh4SSOTkN-14" value="..." style="text;html=1;strokeColor=none;fillColor=none;align=center;verticalAlign=middle;whiteSpace=wrap;rounded=0;fontSize=16;fontStyle=1" vertex="1" parent="1">
          <mxGeometry x="285" y="330" width="40" height="20" as="geometry" />
        </mxCell>
        <mxCell id="v2xlkt1o2UhCh4SSOTkN-15" value="" style="rounded=0;whiteSpace=wrap;html=1;fontSize=16;glass=0;" vertex="1" parent="1">
          <mxGeometry x="429" y="60" width="370" height="380" as="geometry" />
        </mxCell>
        <mxCell id="v2xlkt1o2UhCh4SSOTkN-16" value="&lt;b&gt;&lt;font style=&quot;font-size: 26px&quot;&gt;Global Assessment&lt;/font&gt;&lt;/b&gt;" style="text;html=1;strokeColor=none;fillColor=none;align=center;verticalAlign=middle;whiteSpace=wrap;rounded=0;" vertex="1" parent="1">
          <mxGeometry x="469" y="80" width="280" height="20" as="geometry" />
        </mxCell>
        <mxCell id="v2xlkt1o2UhCh4SSOTkN-17" style="edgeStyle=orthogonalEdgeStyle;rounded=0;orthogonalLoop=1;jettySize=auto;html=1;exitX=0.5;exitY=1;exitDx=0;exitDy=0;entryX=0.5;entryY=0;entryDx=0;entryDy=0;fontSize=16;strokeWidth=2;" edge="1" parent="1" source="v2xlkt1o2UhCh4SSOTkN-18" target="v2xlkt1o2UhCh4SSOTkN-22">
          <mxGeometry relative="1" as="geometry" />
        </mxCell>
        <mxCell id="v2xlkt1o2UhCh4SSOTkN-18" value="&lt;font style=&quot;font-size: 16px&quot;&gt;&lt;b&gt;Read Mapping&lt;br&gt;&lt;/b&gt;&lt;/font&gt;&lt;font style=&quot;font-size: 12px&quot;&gt;minimap2&lt;br&gt;&lt;/font&gt;" style="rounded=1;whiteSpace=wrap;html=1;" vertex="1" parent="1">
          <mxGeometry x="459" y="140" width="300" height="40" as="geometry" />
        </mxCell>
        <mxCell id="v2xlkt1o2UhCh4SSOTkN-19" style="edgeStyle=orthogonalEdgeStyle;rounded=0;orthogonalLoop=1;jettySize=auto;html=1;exitX=1;exitY=0.5;exitDx=0;exitDy=0;entryX=0;entryY=0.5;entryDx=0;entryDy=0;fontSize=16;strokeWidth=2;strokeColor=#006633;" edge="1" parent="1" source="v2xlkt1o2UhCh4SSOTkN-5" target="v2xlkt1o2UhCh4SSOTkN-10">
          <mxGeometry relative="1" as="geometry">
            <Array as="points">
              <mxPoint x="199" y="175" />
              <mxPoint x="199" y="160" />
            </Array>
          </mxGeometry>
        </mxCell>
        <mxCell id="v2xlkt1o2UhCh4SSOTkN-20" style="edgeStyle=orthogonalEdgeStyle;rounded=0;orthogonalLoop=1;jettySize=auto;html=1;exitX=1;exitY=0.5;exitDx=0;exitDy=0;fontSize=16;strokeWidth=2;strokeColor=#006633;" edge="1" parent="1" source="v2xlkt1o2UhCh4SSOTkN-5" target="v2xlkt1o2UhCh4SSOTkN-11">
          <mxGeometry relative="1" as="geometry">
            <Array as="points">
              <mxPoint x="199" y="175" />
              <mxPoint x="199" y="220" />
            </Array>
          </mxGeometry>
        </mxCell>
        <mxCell id="v2xlkt1o2UhCh4SSOTkN-22" value="&lt;span style=&quot;font-weight: bold ; font-size: 16px&quot;&gt;Global Metrics&lt;br&gt;&lt;/span&gt;&lt;br&gt;&lt;b&gt;Table Metrics&lt;br&gt;&lt;/b&gt;&lt;font style=&quot;font-size: 12px&quot;&gt;&lt;b&gt;Original assembly:&lt;/b&gt; Number of contigs, Number of basepairs, Maximum contig size, N&lt;i&gt;x&lt;/i&gt;, Percentage of mapped reads, Number of &quot;N&quot; basepairs&lt;/font&gt;&lt;br&gt;&lt;font style=&quot;font-size: 12px&quot;&gt;&lt;span style=&quot;font-weight: bold&quot;&gt;Contigs over minimum lenght:&amp;nbsp;&lt;/span&gt;Number of contigs, Number of basepairs, N&lt;i&gt;x&lt;/i&gt;, Misassembled contigs, Number of &quot;N&quot; basepairs&lt;br&gt;&lt;br&gt;&lt;b&gt;Plot Metrics&lt;br&gt;&lt;/b&gt;Contig size distribution, Gap size distribution, Misassembled contigs&lt;/font&gt;&lt;font style=&quot;font-size: 12px&quot;&gt;&lt;br&gt;&lt;/font&gt;" style="rounded=1;whiteSpace=wrap;html=1;" vertex="1" parent="1">
          <mxGeometry x="459" y="200" width="300" height="200" as="geometry" />
        </mxCell>
        <mxCell id="v2xlkt1o2UhCh4SSOTkN-23" style="edgeStyle=orthogonalEdgeStyle;rounded=0;orthogonalLoop=1;jettySize=auto;html=1;exitX=0.75;exitY=1;exitDx=0;exitDy=0;entryX=0.772;entryY=0.02;entryDx=0;entryDy=0;entryPerimeter=0;fontSize=16;strokeWidth=2;strokeColor=#003366;" edge="1" parent="1" source="v2xlkt1o2UhCh4SSOTkN-24" target="v2xlkt1o2UhCh4SSOTkN-28">
          <mxGeometry relative="1" as="geometry" />
        </mxCell>
        <mxCell id="v2xlkt1o2UhCh4SSOTkN-24" value="&lt;b&gt;Filter Assembly&lt;/b&gt;&lt;br&gt;&lt;font style=&quot;font-size: 12px&quot;&gt;bbTools&lt;/font&gt;&lt;b&gt;&lt;br&gt;&lt;/b&gt;" style="rounded=0;whiteSpace=wrap;html=1;fontSize=16;" vertex="1" parent="1">
          <mxGeometry x="29" y="460" width="770" height="50" as="geometry" />
        </mxCell>
        <mxCell id="v2xlkt1o2UhCh4SSOTkN-25" style="edgeStyle=orthogonalEdgeStyle;rounded=0;orthogonalLoop=1;jettySize=auto;html=1;exitX=0.5;exitY=1;exitDx=0;exitDy=0;strokeWidth=2;fontSize=16;strokeColor=#660066;" edge="1" parent="1" source="v2xlkt1o2UhCh4SSOTkN-26" target="v2xlkt1o2UhCh4SSOTkN-39">
          <mxGeometry relative="1" as="geometry" />
        </mxCell>
        <mxCell id="v2xlkt1o2UhCh4SSOTkN-26" value="&lt;span style=&quot;font-weight: bold&quot;&gt;Reference Metrics&lt;br&gt;&lt;/span&gt;&lt;br&gt;&lt;font style=&quot;font-size: 12px&quot;&gt;&lt;b&gt;Table Metrics&lt;br&gt;&lt;/b&gt;&lt;/font&gt;&lt;span style=&quot;font-size: 12px&quot;&gt;Contiguity, Multiplicity, Validity, Parsimony, Identity, Lowest Identity, Breadth of Coverage, &lt;br&gt;Aligned Contigs, Misassembled Contigs, Lx, NAx, NGx, Aligned Basepairs, Number of &quot;N&quot; Basepairs&lt;br&gt;&lt;/span&gt;&lt;br&gt;&lt;span style=&quot;font-size: 12px&quot;&gt;&lt;b&gt;Plot Metrics&lt;/b&gt;&lt;br&gt;Genome framentation, Lx metric, NAx metric, NGx metric, PLS metric, Gaps, SNPs&lt;/span&gt;&lt;font style=&quot;font-size: 12px&quot;&gt;&lt;br&gt;&lt;/font&gt;" style="rounded=1;whiteSpace=wrap;html=1;fontSize=16;" vertex="1" parent="1">
          <mxGeometry x="59" y="690" width="710" height="160" as="geometry" />
        </mxCell>
        <mxCell id="v2xlkt1o2UhCh4SSOTkN-27" style="edgeStyle=orthogonalEdgeStyle;rounded=0;orthogonalLoop=1;jettySize=auto;html=1;exitX=0.5;exitY=1;exitDx=0;exitDy=0;entryX=0.5;entryY=0;entryDx=0;entryDy=0;fontSize=16;strokeWidth=2;" edge="1" parent="1" source="v2xlkt1o2UhCh4SSOTkN-28" target="v2xlkt1o2UhCh4SSOTkN-26">
          <mxGeometry relative="1" as="geometry" />
        </mxCell>
        <mxCell id="v2xlkt1o2UhCh4SSOTkN-28" value="&lt;font&gt;&lt;b&gt;Assembly Mapping&lt;br&gt;&lt;/b&gt;&lt;/font&gt;&lt;font style=&quot;font-size: 12px&quot;&gt;minimap2&lt;/font&gt;&lt;b&gt;&lt;br&gt;&lt;/b&gt;" style="rounded=1;whiteSpace=wrap;html=1;fontSize=16;" vertex="1" parent="1">
          <mxGeometry x="59" y="630" width="710" height="40" as="geometry" />
        </mxCell>
        <mxCell id="v2xlkt1o2UhCh4SSOTkN-33" value="&lt;b&gt;&lt;font style=&quot;font-size: 26px&quot;&gt;Per Reference Assessment&lt;/font&gt;&lt;/b&gt;" style="text;html=1;strokeColor=none;fillColor=none;align=center;verticalAlign=middle;whiteSpace=wrap;rounded=0;" vertex="1" parent="1">
          <mxGeometry x="229" y="570" width="343" height="20" as="geometry" />
        </mxCell>
        <mxCell id="v2xlkt1o2UhCh4SSOTkN-34" style="edgeStyle=orthogonalEdgeStyle;rounded=0;orthogonalLoop=1;jettySize=auto;html=1;exitX=1;exitY=0.5;exitDx=0;exitDy=0;fontSize=16;strokeWidth=2;strokeColor=#003366;" edge="1" parent="1" source="v2xlkt1o2UhCh4SSOTkN-6">
          <mxGeometry relative="1" as="geometry">
            <mxPoint x="189" y="630" as="targetPoint" />
          </mxGeometry>
        </mxCell>
        <mxCell id="v2xlkt1o2UhCh4SSOTkN-35" style="edgeStyle=orthogonalEdgeStyle;rounded=0;orthogonalLoop=1;jettySize=auto;html=1;exitX=1;exitY=0.5;exitDx=0;exitDy=0;entryX=0;entryY=0.5;entryDx=0;entryDy=0;strokeWidth=2;fontSize=16;strokeColor=#006633;" edge="1" parent="1" source="v2xlkt1o2UhCh4SSOTkN-5" target="v2xlkt1o2UhCh4SSOTkN-13">
          <mxGeometry relative="1" as="geometry" />
        </mxCell>
        <mxCell id="v2xlkt1o2UhCh4SSOTkN-37" style="edgeStyle=orthogonalEdgeStyle;rounded=0;orthogonalLoop=1;jettySize=auto;html=1;exitX=1;exitY=0.5;exitDx=0;exitDy=0;entryX=0;entryY=0.5;entryDx=0;entryDy=0;strokeWidth=2;fontSize=16;strokeColor=#003366;" edge="1" parent="1" source="v2xlkt1o2UhCh4SSOTkN-10" target="v2xlkt1o2UhCh4SSOTkN-18">
          <mxGeometry relative="1" as="geometry">
            <Array as="points">
              <mxPoint x="410" y="160" />
              <mxPoint x="410" y="300" />
              <mxPoint x="420" y="300" />
              <mxPoint x="420" y="160" />
            </Array>
          </mxGeometry>
        </mxCell>
        <mxCell id="v2xlkt1o2UhCh4SSOTkN-38" style="edgeStyle=orthogonalEdgeStyle;rounded=0;orthogonalLoop=1;jettySize=auto;html=1;exitX=1;exitY=0.5;exitDx=0;exitDy=0;entryX=0;entryY=0.5;entryDx=0;entryDy=0;strokeWidth=2;fontSize=16;strokeColor=#003366;" edge="1" parent="1" source="v2xlkt1o2UhCh4SSOTkN-11" target="v2xlkt1o2UhCh4SSOTkN-18">
          <mxGeometry relative="1" as="geometry">
            <Array as="points">
              <mxPoint x="409" y="230" />
              <mxPoint x="409" y="300" />
              <mxPoint x="420" y="300" />
              <mxPoint x="420" y="160" />
            </Array>
          </mxGeometry>
        </mxCell>
        <mxCell id="v2xlkt1o2UhCh4SSOTkN-39" value="&lt;b&gt;&lt;span style=&quot;font-size: 26px&quot;&gt;Interactive Report&lt;/span&gt;&lt;br&gt;&lt;/b&gt;" style="rounded=0;whiteSpace=wrap;html=1;fontSize=16;" vertex="1" parent="1">
          <mxGeometry x="29" y="900" width="770" height="60" as="geometry" />
        </mxCell>
        <mxCell id="v2xlkt1o2UhCh4SSOTkN-40" value="" style="endArrow=classic;html=1;strokeWidth=2;fontSize=16;exitX=0.893;exitY=1.004;exitDx=0;exitDy=0;exitPerimeter=0;strokeColor=#660066;" edge="1" parent="1">
          <mxGeometry width="50" height="50" relative="1" as="geometry">
            <mxPoint x="719.9000000000001" y="399.9999999999999" as="sourcePoint" />
            <mxPoint x="717" y="900" as="targetPoint" />
          </mxGeometry>
        </mxCell>
        <mxCell id="v2xlkt1o2UhCh4SSOTkN-41" value="" style="endArrow=classic;html=1;strokeWidth=2;fontSize=16;exitX=0.893;exitY=1.004;exitDx=0;exitDy=0;exitPerimeter=0;strokeColor=#660066;" edge="1" parent="1">
          <mxGeometry width="50" height="50" relative="1" as="geometry">
            <mxPoint x="105.15000000000019" y="399.9999999999999" as="sourcePoint" />
            <mxPoint x="103" y="900" as="targetPoint" />
          </mxGeometry>
        </mxCell>
        <mxCell id="v2xlkt1o2UhCh4SSOTkN-42" style="edgeStyle=orthogonalEdgeStyle;rounded=0;orthogonalLoop=1;jettySize=auto;html=1;exitX=1;exitY=0.5;exitDx=0;exitDy=0;entryX=0;entryY=0.5;entryDx=0;entryDy=0;strokeWidth=2;fontSize=16;strokeColor=#003366;" edge="1" parent="1" source="v2xlkt1o2UhCh4SSOTkN-13" target="v2xlkt1o2UhCh4SSOTkN-18">
          <mxGeometry relative="1" as="geometry">
            <Array as="points">
              <mxPoint x="410" y="380" />
              <mxPoint x="410" y="300" />
              <mxPoint x="420" y="300" />
              <mxPoint x="420" y="160" />
            </Array>
          </mxGeometry>
        </mxCell>
        <mxCell id="v2xlkt1o2UhCh4SSOTkN-44" value="" style="endArrow=classic;html=1;strokeWidth=2;fontSize=16;entryX=0.508;entryY=-0.038;entryDx=0;entryDy=0;entryPerimeter=0;strokeColor=#003366;" edge="1" parent="1" target="v2xlkt1o2UhCh4SSOTkN-24">
          <mxGeometry width="50" height="50" relative="1" as="geometry">
            <mxPoint x="420" y="260" as="sourcePoint" />
            <mxPoint x="330" y="320" as="targetPoint" />
            <Array as="points" />
          </mxGeometry>
        </mxCell>
        <mxCell id="v2xlkt1o2UhCh4SSOTkN-47" style="edgeStyle=orthogonalEdgeStyle;rounded=0;orthogonalLoop=1;jettySize=auto;html=1;exitX=0.5;exitY=0;exitDx=0;exitDy=0;entryX=0.5;entryY=0;entryDx=0;entryDy=0;strokeColor=#006633;strokeWidth=2;fontSize=16;" edge="1" parent="1" source="v2xlkt1o2UhCh4SSOTkN-5" target="v2xlkt1o2UhCh4SSOTkN-18">
          <mxGeometry relative="1" as="geometry">
            <Array as="points">
              <mxPoint x="104" y="120" />
              <mxPoint x="609" y="120" />
            </Array>
          </mxGeometry>
        </mxCell>
        <mxCell id="v2xlkt1o2UhCh4SSOTkN-50" style="edgeStyle=orthogonalEdgeStyle;rounded=0;orthogonalLoop=1;jettySize=auto;html=1;exitX=1;exitY=0.5;exitDx=0;exitDy=0;entryX=0;entryY=0.5;entryDx=0;entryDy=0;strokeWidth=2;strokeColor=#003366;" edge="1" parent="1" source="v2xlkt1o2UhCh4SSOTkN-48" target="v2xlkt1o2UhCh4SSOTkN-18">
          <mxGeometry relative="1" as="geometry" />
        </mxCell>
        <mxCell id="v2xlkt1o2UhCh4SSOTkN-48" value="&lt;font style=&quot;font-size: 16px&quot;&gt;&lt;b&gt;Assembler 3&lt;/b&gt;&lt;/font&gt;" style="rounded=1;whiteSpace=wrap;html=1;" vertex="1" parent="1">
          <mxGeometry x="231" y="280" width="150" height="40" as="geometry" />
        </mxCell>
        <mxCell id="v2xlkt1o2UhCh4SSOTkN-49" style="edgeStyle=orthogonalEdgeStyle;rounded=0;orthogonalLoop=1;jettySize=auto;html=1;exitX=1;exitY=0.5;exitDx=0;exitDy=0;entryX=0;entryY=0.5;entryDx=0;entryDy=0;strokeColor=#006633;strokeWidth=2;" edge="1" parent="1" source="v2xlkt1o2UhCh4SSOTkN-5" target="v2xlkt1o2UhCh4SSOTkN-48">
          <mxGeometry relative="1" as="geometry" />
        </mxCell>
      </root>
    </mxGraphModel>
  </diagram>
</mxfile>
